HIERARCHY
ROOT hip
{
  OFFSET 0 0 0
  CHANNELS 6 Xposition Yposition Zposition Zrotation Yrotation Xrotation
  JOINT abdomen
  {
    OFFSET 0 20.6881 -0.73152
    CHANNELS 3 Zrotation Xrotation Yrotation
    JOINT chest
    {
      OFFSET 0 11.7043 -0.48768
      CHANNELS 3 Zrotation Xrotation Yrotation
      JOINT neck
      {
        OFFSET 0 22.1894 -2.19456
        CHANNELS 3 Zrotation Xrotation Yrotation
        JOINT head
        {
          OFFSET -0.24384 7.07133 1.2192
          CHANNELS 3 Zrotation Xrotation Yrotation
          JOINT leftEye
          {
            OFFSET 4.14528 8.04674 8.04672
            CHANNELS 3 Zrotation Xrotation Yrotation
            End Site
            {
              OFFSET 1 0 0
            }
          }
          JOINT rightEye
          {
            OFFSET -3.6576 8.04674 8.04672
            CHANNELS 3 Zrotation Xrotation Yrotation
            End Site
            {
              OFFSET 1 0 0
            }
          }
        }
      }
      JOINT rCollar
      {
        OFFSET -2.68224 19.2634 -4.8768
        CHANNELS 3 Zrotation Xrotation Yrotation
        JOINT rShldr
        {
          OFFSET -8.77824 -1.95073 1.46304
          CHANNELS 3 Zrotation Xrotation Yrotation
          JOINT rForeArm
          {
            OFFSET -28.1742 -1.7115 0.48768
            CHANNELS 3 Zrotation Xrotation Yrotation
            JOINT rHand
            {
              OFFSET -22.5879 0.773209 7.07136
              CHANNELS 3 Zrotation Xrotation Yrotation
              JOINT rThumb1
              {
                OFFSET -1.2192 -0.487915 3.41376
                CHANNELS 3 Zrotation Xrotation Yrotation
                JOINT rThumb2
                {
                  OFFSET -3.37035 -0.52449 3.41376
                  CHANNELS 3 Zrotation Xrotation Yrotation
                  End Site
                  {
                    OFFSET -1.78271 -1.18214 1.43049
                  }
                }
              }
              JOINT rIndex1
              {
                OFFSET -7.75947 0.938293 5.60832
                CHANNELS 3 Zrotation Xrotation Yrotation
                JOINT rIndex2
                {
                  OFFSET -2.54057 -0.884171 1.56538
                  CHANNELS 3 Zrotation Xrotation Yrotation
                  End Site
                  {
                    OFFSET -1.62519 -0.234802 1.16502
                  }
                }
              }
              JOINT rMid1
              {
                OFFSET -8.24714 1.18213 3.41376
                CHANNELS 3 Zrotation Xrotation Yrotation
                JOINT rMid2
                {
                  OFFSET -3.10165 -0.590103 1.0647
                  CHANNELS 3 Zrotation Xrotation Yrotation
                  End Site
                  {
                    OFFSET -2.48547 -0.328903 0.83742
                  }
                }
              }
              JOINT rRing1
              {
                OFFSET -8.82822 0.546677 1.51678
                CHANNELS 3 Zrotation Xrotation Yrotation
                JOINT rRing2
                {
                  OFFSET -2.60934 -0.819778 -0.0198488
                  CHANNELS 3 Zrotation Xrotation Yrotation
                  End Site
                  {
                    OFFSET -2.33842 -0.294052 0.168128
                  }
                }
              }
              JOINT rPinky1
              {
                OFFSET -8.27202 -0.0477905 -0.4584
                CHANNELS 3 Zrotation Xrotation Yrotation
                JOINT rPinky2
                {
                  OFFSET -1.82734 -0.647385 -0.700984
                  CHANNELS 3 Zrotation Xrotation Yrotation
                  End Site
                  {
                    OFFSET -1.69225 -0.51767 -0.607171
                  }
                }
              }
            }
          }
        }
      }
      JOINT lCollar
      {
        OFFSET 2.68224 19.2634 -4.8768
        CHANNELS 3 Zrotation Xrotation Yrotation
        JOINT lShldr
        {
          OFFSET 8.77824 -1.95073 1.46304
          CHANNELS 3 Zrotation Xrotation Yrotation
          JOINT lForeArm
          {
            OFFSET 28.1742 -1.7115 0.48768
            CHANNELS 3 Zrotation Xrotation Yrotation
            JOINT lHand
            {
              OFFSET 22.5879 0.773209 7.07136
              CHANNELS 3 Zrotation Xrotation Yrotation
              JOINT lThumb1
              {
                OFFSET 1.2192 -0.487915 3.41376
                CHANNELS 3 Zrotation Xrotation Yrotation
                JOINT lThumb2
                {
                  OFFSET 3.37035 -0.52449 3.41376
                  CHANNELS 3 Zrotation Xrotation Yrotation
                  End Site
                  {
                    OFFSET 1.78271 -1.18214 1.43049
                  }
                }
              }
              JOINT lIndex1
              {
                OFFSET 7.75947 0.938293 5.60832
                CHANNELS 3 Zrotation Xrotation Yrotation
                JOINT lIndex2
                {
                  OFFSET 2.54057 -0.884171 1.56538
                  CHANNELS 3 Zrotation Xrotation Yrotation
                  End Site
                  {
                    OFFSET 1.62519 -0.234802 1.16502
                  }
                }
              }
              JOINT lMid1
              {
                OFFSET 8.24714 1.18213 3.41376
                CHANNELS 3 Zrotation Xrotation Yrotation
                JOINT lMid2
                {
                  OFFSET 3.10165 -0.590103 1.0647
                  CHANNELS 3 Zrotation Xrotation Yrotation
                  End Site
                  {
                    OFFSET 2.48547 -0.328903 0.83742
                  }
                }
              }
              JOINT lRing1
              {
                OFFSET 8.82822 0.546677 1.51678
                CHANNELS 3 Zrotation Xrotation Yrotation
                JOINT lRing2
                {
                  OFFSET 2.60934 -0.819778 -0.0198488
                  CHANNELS 3 Zrotation Xrotation Yrotation
                  End Site
                  {
                    OFFSET 2.33842 -0.294052 0.168128
                  }
                }
              }
              JOINT lPinky1
              {
                OFFSET 8.27202 -0.0477905 -0.4584
                CHANNELS 3 Zrotation Xrotation Yrotation
                JOINT lPinky2
                {
                  OFFSET 1.82734 -0.647385 -0.700984
                  CHANNELS 3 Zrotation Xrotation Yrotation
                  End Site
                  {
                    OFFSET 1.69225 -0.51767 -0.607171
                  }
                }
              }
            }
          }
        }
      }
    }
  }
  JOINT rButtock
  {
    OFFSET -8.77824 4.35084 1.2192
    CHANNELS 3 Zrotation Xrotation Yrotation
    JOINT rThigh
    {
      OFFSET 0 -1.70687 -2.19456
      CHANNELS 3 Zrotation Xrotation Yrotation
      JOINT rShin
      {
        OFFSET 0 -36.8199 0.73152
        CHANNELS 3 Zrotation Xrotation Yrotation
        JOINT rFoot
        {
          OFFSET 0.73152 -45.1104 -5.12064
          CHANNELS 3 Zrotation Xrotation Yrotation
          End Site
          {
            OFFSET -1.1221 -3.69964 12.103
          }
        }
      }
    }
  }
  JOINT lButtock
  {
    OFFSET 8.77824 4.35084 1.2192
    CHANNELS 3 Zrotation Xrotation Yrotation
    JOINT lThigh
    {
      OFFSET 0 -1.70687 -2.19456
      CHANNELS 3 Zrotation Xrotation Yrotation
      JOINT lShin
      {
        OFFSET 0 -36.8199 0.73152
        CHANNELS 3 Zrotation Xrotation Yrotation
        JOINT lFoot
        {
          OFFSET -0.73152 -45.1104 -5.12064
          CHANNELS 3 Zrotation Xrotation Yrotation
          End Site
          {
            OFFSET 1.1221 -3.69964 12.103
          }
        }
      }
    }
  }
}
MOTION
Frames:	8
Frame Time:	0.00833333
48.274 78.1367 2.93113 77.298 87.017 63.2698 -4.0478 21.7633 3.51406 1.12935 -1.61879 1.23789 2.11243 -8.4045 0.401815 1.19917 13.6185 0.557536 -0.0 0.0 0.0 -0.0 0.0 0.0 5.3294e-14 1.67578e-12 1.31695e-14 14.5047 2.40449 62.0751 -19.4449 -12.3292 37.3488 -0.00251884 -1.43292 -0.201425 -4.08008e-10 7.31925e-10 1.54699e-10 -7.10805e-10 1.26689e-09 2.66915e-10 -4.08009e-10 7.31931e-10 1.54689e-10 7.73091 5.47488 0.417314 -4.08006e-10 7.31929e-10 1.54702e-10 2.90554 0.965183 0.102902 -4.07999e-10 7.31932e-10 1.54704e-10 10.2786 0.731801 0.0259123 -4.08008e-10 7.31932e-10 1.54709e-10 2.22167 -0.733487 -0.20892 5.32581e-14 1.67578e-12 1.30701e-14 -7.02609 3.17337 -63.5372 19.2927 -12.1475 -36.9896 0.00414475 1.83793 -0.258394 -2.30653e-10 -6.89411e-10 1.28809e-10 -3.9492e-10 -1.19386e-09 2.25334e-10 -2.30655e-10 -6.89411e-10 1.28819e-10 -7.73091 5.47488 -0.417314 -2.3065e-10 -6.89411e-10 1.28809e-10 -2.90554 0.965183 -0.102902 -2.30655e-10 -6.89412e-10 1.2881e-10 -10.2786 0.731801 -0.0259123 -2.30639e-10 -6.89407e-10 1.28809e-10 -2.22167 -0.733487 0.20892 -2.03217e-16 0.0 -3.88251e-19 -18.0686 -9.2019 -8.53817 -0.774048 55.6486 1.39681 -3.8624 -27.0332 -7.16614 2.03217e-16 0.0 3.88251e-19 16.6737 -3.66044 11.9075 0.639529 51.123 -1.08211 0.00584042 -25.1599 -0.666488
48.265 78.1228 2.90334 77.4176 86.9218 63.43 -4.03167 21.7617 3.52928 1.1243 -1.61153 1.24295 2.07283 -8.40434 0.397518 1.26165 13.5901 0.556969 -0.0 0.0 0.0 -0.0 0.0 0.0 6.60495e-14 1.78618e-12 -2.34884e-14 14.4568 2.42944 62.045 -19.4668 -12.3556 37.4006 -0.00258506 -1.45248 -0.204177 3.70357e-10 7.41481e-10 2.74209e-10 6.34411e-10 1.28262e-09 4.72791e-10 3.70354e-10 7.41485e-10 2.74199e-10 7.73091 5.47488 0.417314 3.70358e-10 7.41483e-10 2.74211e-10 2.90554 0.965183 0.102902 3.70365e-10 7.41486e-10 2.74212e-10 10.2786 0.731801 0.0259123 3.70354e-10 7.41486e-10 2.74217e-10 2.22167 -0.733487 -0.20892 6.59789e-14 1.78617e-12 -2.36123e-14 -6.99077 3.2039 -63.5022 19.3175 -12.177 -37.0477 0.0039274 1.79103 -0.251796 -1.08768e-09 -7.63906e-10 -4.46586e-11 -1.87692e-09 -1.32416e-09 -7.16621e-11 -1.08768e-09 -7.63906e-10 -4.46484e-11 -7.73091 5.47488 -0.417314 -1.08768e-09 -7.63907e-10 -4.46587e-11 -2.90554 0.965183 -0.102902 -1.08768e-09 -7.63907e-10 -4.46576e-11 -10.2786 0.731801 -0.0259123 -1.08766e-09 -7.63903e-10 -4.46604e-11 -2.22167 -0.733487 0.20892 -2.03217e-16 0.0 -3.88251e-19 -18.0495 -9.22056 -8.49768 -0.775035 55.6683 1.39765 -3.85666 -27.0389 -7.15058 2.03217e-16 0.0 3.88251e-19 16.6614 -3.65793 11.8954 0.639893 51.1333 -1.08246 -0.000950796 -25.2086 -0.677362
48.2577 78.1151 2.87821 78.0433 86.8502 64.0791 -4.00835 21.762 3.53439 1.13173 -1.59274 1.24586 2.00364 -8.40071 0.395525 1.38024 13.5519 0.566895 -0.0 0.0 0.0 -0.0 0.0 0.0 7.71801e-14 1.48191e-12 -1.06201e-13 14.3719 2.46671 62.0132 -19.4929 -12.387 37.4624 -0.00274391 -1.49731 -0.210482 1.54815e-09 5.87889e-10 4.21135e-10 2.67102e-09 1.01573e-09 7.25991e-10 1.54815e-09 5.87891e-10 4.21125e-10 7.73091 5.47488 0.417314 1.54815e-09 5.8789e-10 4.21136e-10 2.90554 0.965183 0.102902 1.54816e-09 5.87891e-10 4.21136e-10 10.2786 0.731801 0.0259123 1.54815e-09 5.87893e-10 4.21141e-10 2.22167 -0.733487 -0.20892 7.7057e-14 1.4819e-12 -1.06372e-13 -6.95507 3.24101 -63.4383 19.3541 -12.2207 -37.1339 0.00364601 1.72686 -0.242768 -2.1853e-09 -7.07458e-10 -2.86109e-10 -3.77565e-09 -1.22831e-09 -4.85616e-10 -2.1853e-09 -7.07457e-10 -2.86098e-10 -7.73091 5.47488 -0.417314 -2.1853e-09 -7.07458e-10 -2.86109e-10 -2.90554 0.965183 -0.102902 -2.1853e-09 -7.07458e-10 -2.86107e-10 -10.2786 0.731801 -0.0259123 -2.18529e-09 -7.07455e-10 -2.86112e-10 -2.22167 -0.733487 0.20892 -2.03217e-16 0.0 -3.88251e-19 -18.0111 -9.21967 -8.43874 -0.774655 55.6581 1.39666 -3.84689 -27.0336 -7.12943 2.03217e-16 0.0 3.88251e-19 16.6565 -3.63338 11.8785 0.639522 51.1234 -1.08198 -0.00824083 -25.279 -0.688612
48.2605 78.1148 2.8926 77.1808 86.9239 63.1813 -3.97946 21.7664 3.52901 1.1421 -1.57285 1.24619 1.93414 -8.40067 0.395971 1.50148 13.5089 0.580825 -0.0 0.0 0.0 -0.0 0.0 0.0 8.46598e-14 1.07832e-12 -1.89435e-13 14.2804 2.50372 61.9847 -19.5184 -12.4179 37.5231 -0.00292758 -1.54597 -0.217325 2.51407e-09 4.06475e-10 5.34029e-10 4.34184e-09 7.00972e-10 9.20697e-10 2.51407e-09 4.06475e-10 5.34019e-10 7.73091 5.47488 0.417314 2.51407e-09 4.06474e-10 5.3403e-10 2.90554 0.965183 0.102902 2.51408e-09 4.06474e-10 5.34028e-10 10.2786 0.731801 0.0259123 2.51406e-09 4.06476e-10 5.34034e-10 2.22167 -0.733487 -0.20892 8.44929e-14 1.07831e-12 -1.89654e-13 -6.92772 3.27265 -63.3718 19.3887 -12.2619 -37.2156 0.00340212 1.6671 -0.234362 -3.01519e-09 -6.13855e-10 -4.72652e-10 -5.21174e-09 -1.06769e-09 -8.05659e-10 -3.01519e-09 -6.13853e-10 -4.7264e-10 -7.73091 5.47488 -0.417314 -3.01519e-09 -6.13855e-10 -4.72652e-10 -2.90554 0.965183 -0.102902 -3.01519e-09 -6.13855e-10 -4.72649e-10 -10.2786 0.731801 -0.0259123 -3.01518e-09 -6.13852e-10 -4.72657e-10 -2.22167 -0.733487 0.20892 -2.03217e-16 0.0 -3.88251e-19 -17.9705 -9.21005 -8.3863 -0.773728 55.6361 1.39505 -3.83606 -27.0222 -7.10828 2.03217e-16 0.0 3.88251e-19 16.6565 -3.60736 11.8581 0.638928 51.1077 -1.08134 -0.0113929 -25.3427 -0.69236
48.2655 78.1154 2.92051 75.6871 87.035 61.6352 -3.94664 21.777 3.51272 1.1459 -1.56231 1.24346 1.89356 -8.4113 0.398992 1.5719 13.4661 0.592274 -0.0 0.0 0.0 -0.0 0.0 0.0 8.64626e-14 8.90749e-13 -2.27658e-13 14.2129 2.52783 61.9646 -19.5388 -12.4425 37.5716 -0.00305104 -1.577 -0.221689 2.6568e-09 3.32562e-10 5.51445e-10 4.5897e-09 5.73114e-10 9.51092e-10 2.6568e-09 3.32561e-10 5.51435e-10 7.73091 5.47488 0.417314 2.6568e-09 3.3256e-10 5.51445e-10 2.90554 0.965183 0.102902 2.65681e-09 3.32559e-10 5.51441e-10 10.2786 0.731801 0.0259123 2.65679e-09 3.32562e-10 5.51448e-10 2.22167 -0.733487 -0.20892 8.6287e-14 8.90746e-13 -2.27907e-13 -6.91732 3.28659 -63.3289 19.4075 -12.2843 -37.2601 0.00327343 1.63344 -0.229628 -3.06902e-09 -5.76887e-10 -4.81399e-10 -5.30584e-09 -1.00368e-09 -8.20921e-10 -3.06902e-09 -5.76885e-10 -4.81386e-10 -7.73091 5.47488 -0.417314 -3.06902e-09 -5.76888e-10 -4.81399e-10 -2.90554 0.965183 -0.102902 -3.06902e-09 -5.76887e-10 -4.81395e-10 -10.2786 0.731801 -0.0259123 -3.06901e-09 -5.76885e-10 -4.81406e-10 -2.22167 -0.733487 0.20892 -2.03217e-16 0.0 -3.88251e-19 -17.9447 -9.20259 -8.36531 -0.773072 55.6209 1.39401 -3.82714 -27.0098 -7.0927 2.03217e-16 0.0 3.88251e-19 16.6588 -3.60044 11.8354 0.63862 51.1006 -1.08122 -0.00572746 -25.3713 -0.680712
48.257 78.1096 2.91465 76.2261 87.0592 62.1676 -3.89994 21.7955 3.47759 1.13663 -1.56439 1.23581 1.89505 -8.44102 0.405489 1.5707 13.4217 0.598845 -0.0 0.0 0.0 -0.0 0.0 0.0 8.42159e-14 1.2374e-12 -1.95518e-13 14.1803 2.53168 61.9558 -19.5519 -12.4584 37.6029 -0.00306898 -1.58119 -0.222279 1.32745e-09 4.69069e-10 4.11443e-10 2.29309e-09 8.10958e-10 7.10825e-10 1.32745e-09 4.69068e-10 4.11435e-10 7.73091 5.47488 0.417314 1.32745e-09 4.69067e-10 4.11443e-10 2.90554 0.965183 0.102902 1.32746e-09 4.69066e-10 4.1144e-10 10.2786 0.731801 0.0259123 1.32744e-09 4.69068e-10 4.11445e-10 2.22167 -0.733487 -0.20892 8.40873e-14 1.23739e-12 -1.95765e-13 -6.93259 3.27162 -63.3212 19.4017 -12.2773 -37.2464 0.00328216 1.63486 -0.229828 -1.73786e-09 -6.77193e-10 -1.57144e-10 -3.00519e-09 -1.17467e-09 -2.65164e-10 -1.73787e-09 -6.77191e-10 -1.57131e-10 -7.73091 5.47488 -0.417314 -1.73786e-09 -6.77193e-10 -1.57143e-10 -2.90554 0.965183 -0.102902 -1.73787e-09 -6.77193e-10 -1.5714e-10 -10.2786 0.731801 -0.0259123 -1.73786e-09 -6.7719e-10 -1.57151e-10 -2.22167 -0.733487 0.20892 -2.03217e-16 0.0 -3.88251e-19 -17.9357 -9.19829 -8.39191 -0.77261 55.6113 1.39358 -3.82164 -26.9926 -7.08745 2.03217e-16 0.0 3.88251e-19 16.6688 -3.62358 11.8082 0.638602 51.1031 -1.08184 0.016775 -25.3446 -0.639791
48.2446 78.0977 2.90658 77.4635 87.123 63.4279 -3.84192 21.8205 3.42641 1.1207 -1.57335 1.22406 1.92122 -8.48387 0.415105 1.52858 13.374 0.604221 -0.0 0.0 0.0 -0.0 0.0 0.0 7.82777e-14 1.87204e-12 -1.21703e-13 14.1653 2.52332 61.9551 -19.5605 -12.4689 37.6235 -0.00302977 -1.57116 -0.220867 -9.86003e-10 7.21545e-10 1.61981e-10 -1.7043e-09 1.25057e-09 2.82377e-10 -9.86002e-10 7.21545e-10 1.61975e-10 7.73091 5.47488 0.417314 -9.86004e-10 7.21543e-10 1.61982e-10 2.90554 0.965183 0.102902 -9.85993e-10 7.21543e-10 1.61979e-10 10.2786 0.731801 0.0259123 -9.86013e-10 7.21544e-10 1.61983e-10 2.22167 -0.733487 -0.20892 7.82331e-14 1.87204e-12 -1.2193e-13 -6.96677 3.23687 -63.3333 19.3804 -12.2519 -37.1959 0.00337855 1.65873 -0.233185 5.4938e-10 -8.46209e-10 3.93761e-10 9.48472e-10 -1.46281e-09 6.79146e-10 5.49375e-10 -8.46206e-10 3.93774e-10 -7.73091 5.47488 -0.417314 5.49382e-10 -8.46208e-10 3.93763e-10 -2.90554 0.965183 -0.102902 5.49373e-10 -8.46208e-10 3.93764e-10 -10.2786 0.731801 -0.0259123 5.49388e-10 -8.46205e-10 3.93754e-10 -2.22167 -0.733487 0.20892 -2.03217e-16 0.0 -3.88251e-19 -17.9352 -9.192 -8.44964 -0.772003 55.5995 1.39322 -3.81775 -26.9698 -7.08846 2.03217e-16 0.0 3.88251e-19 16.6859 -3.66399 11.7766 0.638647 51.1086 -1.08282 0.0512499 -25.2818 -0.57778
48.2356 78.0872 2.9096 77.6042 87.1771 63.5841 -3.79298 21.8492 3.37496 1.10789 -1.58615 1.21182 1.95561 -8.52538 0.42608 1.46928 13.3286 0.611035 -0.0 0.0 0.0 -0.0 0.0 0.0 6.4718e-14 2.26342e-12 -4.1739e-14 14.1565 2.51314 61.958 -19.5674 -12.4773 37.64 -0.00297902 -1.55815 -0.219038 -3.1895e-09 9.29262e-10 -9.35501e-11 -5.51184e-09 1.61258e-09 -1.56826e-10 -3.1895e-09 9.29264e-10 -9.35544e-11 7.73091 5.47488 0.417314 -3.1895e-09 9.29261e-10 -9.35491e-11 2.90554 0.965183 0.102902 -3.18949e-09 9.29261e-10 -9.35523e-11 10.2786 0.731801 0.0259123 -3.18951e-09 9.29262e-10 -9.35494e-11 2.22167 -0.733487 -0.20892 6.47618e-14 2.26342e-12 -4.19443e-14 -7.00521 3.20058 -63.3507 19.3567 -12.2235 -37.14 0.00352398 1.69433 -0.238193 2.7443e-09 -9.53921e-10 9.01865e-10 4.74273e-09 -1.64512e-09 1.54982e-09 2.74429e-09 -9.53919e-10 9.01879e-10 -7.73091 5.47488 -0.417314 2.7443e-09 -9.5392e-10 9.01869e-10 -2.90554 0.965183 -0.102902 2.74429e-09 -9.5392e-10 9.01868e-10 -10.2786 0.731801 -0.0259123 2.74431e-09 -9.53917e-10 9.01859e-10 -2.22167 -0.733487 0.20892 -2.03217e-16 0.0 -3.88251e-19 -17.9451 -9.18529 -8.51451 -0.771677 55.5939 1.39323 -3.81339 -26.9502 -7.08808 2.03217e-16 0.0 3.88251e-19 16.6983 -3.70665 11.7457 0.638915 51.1197 -1.08396 0.0831578 -25.2143 -0.519824
